HIERARCHY
ROOT Hips
{
	OFFSET 0.00000 0.00000 0.00000
	CHANNELS 6 Xposition Yposition Zposition Zrotation Yrotation Xrotation 
	JOINT LHipJoint
	{
		OFFSET 0 0 0
		CHANNELS 3 Zrotation Yrotation Xrotation
		JOINT LeftUpLeg
		{
			OFFSET 1.56857 -1.73443 1.15205
			CHANNELS 3 Zrotation Yrotation Xrotation
			JOINT LeftLeg
			{
				OFFSET 2.39362 -6.57643 0.00000
				CHANNELS 3 Zrotation Yrotation Xrotation
				JOINT LeftFoot
				{
					OFFSET 2.50952 -6.89485 0.00000
					CHANNELS 3 Zrotation Yrotation Xrotation
					JOINT LeftToeBase
					{
						OFFSET 0.17171 -0.47178 1.88682
						CHANNELS 3 Zrotation Yrotation Xrotation
						End Site
						{
							OFFSET 0.00000 -0.00000 0.98146
						}
					}
				}
			}
		}
	}
	JOINT RHipJoint
	{
		OFFSET 0 0 0
		CHANNELS 3 Zrotation Yrotation Xrotation
		JOINT RightUpLeg
		{
			OFFSET -1.28153 -1.73443 1.15205
			CHANNELS 3 Zrotation Yrotation Xrotation
			JOINT RightLeg
			{
				OFFSET -2.26861 -6.23296 0.00000
				CHANNELS 3 Zrotation Yrotation Xrotation
				JOINT RightFoot
				{
					OFFSET -2.54143 -6.98254 0.00000
					CHANNELS 3 Zrotation Yrotation Xrotation
					JOINT RightToeBase
					{
						OFFSET -0.23309 -0.64041 1.93119
						CHANNELS 3 Zrotation Yrotation Xrotation
						End Site
						{
							OFFSET -0.00000 -0.00000 1.02013
						}
					}
				}
			}
		}
	}
	JOINT LowerBack
	{
		OFFSET 0 0 0
		CHANNELS 3 Zrotation Yrotation Xrotation
		JOINT Spine
		{
			OFFSET -0.07096 2.10460 -0.27878
			CHANNELS 3 Zrotation Yrotation Xrotation
			JOINT Spine1
			{
				OFFSET -0.00826 2.13662 -0.08279
				CHANNELS 3 Zrotation Yrotation Xrotation
				JOINT Neck
				{
					OFFSET 0 0 0
					CHANNELS 3 Zrotation Yrotation Xrotation
					JOINT Neck1
					{
						OFFSET 0.03239 1.77799 0.24435
						CHANNELS 3 Zrotation Yrotation Xrotation
						JOINT Head
						{
							OFFSET 0.01026 1.74194 -0.49664
							CHANNELS 3 Zrotation Yrotation Xrotation
							End Site
							{
								OFFSET 0.00170 1.83057 -0.19653
							}
						}
					}
				}
				JOINT LeftShoulder
				{
					OFFSET 0 0 0
					CHANNELS 3 Zrotation Yrotation Xrotation
					JOINT LeftArm
					{
						OFFSET 3.19178 1.35907 -0.31412
						CHANNELS 3 Zrotation Yrotation Xrotation
						JOINT LeftForeArm
						{
							OFFSET 4.85247 -0.00000 -0.00000
							CHANNELS 3 Zrotation Yrotation Xrotation
							JOINT LeftHand
							{
								OFFSET 3.55584 -0.00000 0.00000
								CHANNELS 3 Zrotation Yrotation Xrotation
								JOINT LeftFingerBase
								{
									OFFSET 0 0 0
									CHANNELS 3 Zrotation Yrotation Xrotation
									JOINT LeftHandIndex1
									{
										OFFSET 0.69320 -0.00000 0.00000
										CHANNELS 3 Zrotation Yrotation Xrotation
										End Site
										{
											OFFSET 0.55888 -0.00000 0.00000
										}
									}
								}
								JOINT LThumb
								{
									OFFSET 0 0 0
									CHANNELS 3 Zrotation Yrotation Xrotation
									End Site
									{
										OFFSET 0.56741 -0.00000 0.56741
									}
								}
							}
						}
					}
				}
				JOINT RightShoulder
				{
					OFFSET 0 0 0
					CHANNELS 3 Zrotation Yrotation Xrotation
					JOINT RightArm
					{
						OFFSET -3.28999 1.24191 -0.26899
						CHANNELS 3 Zrotation Yrotation Xrotation
						JOINT RightForeArm
						{
							OFFSET -4.64462 -0.00000 0.00000
							CHANNELS 3 Zrotation Yrotation Xrotation
							JOINT RightHand
							{
								OFFSET -3.40703 -0.00000 0.00000
								CHANNELS 3 Zrotation Yrotation Xrotation
								JOINT RightFingerBase
								{
									OFFSET 0 0 0
									CHANNELS 3 Zrotation Yrotation Xrotation
									JOINT RightHandIndex1
									{
										OFFSET -0.61958 -0.00000 0.00000
										CHANNELS 3 Zrotation Yrotation Xrotation
										End Site
										{
											OFFSET -0.49952 -0.00000 0.00000
										}
									}
								}
								JOINT RThumb
								{
									OFFSET 0 0 0
									CHANNELS 3 Zrotation Yrotation Xrotation
									End Site
									{
										OFFSET -0.50715 -0.00000 0.50715
									}
								}
							}
						}
					}
				}
			}
		}
	}
}
MOTION
Frames: 7
Frame Time: .0083333
-29.0833 17.0689 0.835 0 0 0 0 0 0 -21 0 0 0 0 0 0 0 0 0 0 0 0 0 0 21 0 0 0 0 0 0 0 0 0 0 0 0 0 0 0 0 0 0 0 0 0 0 -16 0 0 21 0 0 11 0 0 0 -8 0 0 0 0 0 0 0 0 0 0 0 0 0 0 0 0 0 0 0 0 8 0 0 0 0 0 0 0 0 0 0 0 0 0 0 0 0 0
-29.0833 17.0689 0.8350 13.3909 85.9281 10.0686 0.0000 0.0000 0.0000 -16.0163 6.5092 13.6692 0.0012 -0.2267 -0.6228 0.3495 9.9547 -18.8538 0.0087 -0.6039 -1.6595 0.0000 0.0000 0.0000 14.1478 -4.6199 9.6062 -0.0372 -1.2453 3.4241 -0.6574 5.3112 -14.4397 -0.1578 -2.5593 7.0541 -3.6106 2.0455 7.1967 -0.3826 2.3848 -1.2405 1.3439 1.2861 -5.4655 4.8499 2.5774 -19.5912 -2.1570 3.1857 28.0061 -1.0876 1.8047 12.6990 0.0000 -0.0000 0.0000 -87.5481 5.8035 35.4411 13.2263 -21.6179 -2.5361 -0.0000 -0.0000 12.5487 15.1891 -21.0970 -5.5814 -7.1250 0.0000 -0.0000 -8.5357 8.3855 7.2832 0.0000 -0.0000 0.0000 87.6076 -9.0515 29.0508 -16.9228 26.7559 -4.0525 0.0000 0.0000 2.7821 -8.2362 -32.8618 4.4909 7.1250 -0.0000 -0.0000 28.1491 -60.8634 -11.3977
-29.0847 17.0685 0.8362 13.3042 85.9376 9.9997 0.0000 0.0000 0.0000 -15.9627 6.6237 13.5611 0.0010 -0.1997 -0.5487 0.3362 9.9740 -18.7247 0.0215 -0.9457 -2.5995 0.0000 0.0000 0.0000 14.1593 -4.6334 9.5526 -0.0378 -1.2552 3.4513 -0.6533 5.3157 -14.3946 -0.1497 -2.4935 6.8716 -3.6168 2.0405 7.2737 -0.3787 2.3731 -1.2970 1.3489 1.2825 -5.5684 4.8123 2.5463 -19.5659 -2.1540 3.1599 28.0721 -1.0845 1.7919 12.7186 -0.0000 0.0000 0.0000 -87.5623 5.8911 35.3879 13.2448 -21.6449 -2.5429 -0.0000 -0.0000 12.5144 15.1594 -21.1288 -5.5779 -7.1250 0.0000 -0.0000 -8.5561 8.3568 7.3058 -0.0000 0.0000 0.0000 87.5928 -9.1315 29.1219 -16.9215 26.7542 -4.0519 0.0000 0.0000 2.7010 -8.3060 -32.6863 4.5079 7.1250 -0.0000 -0.0000 27.9118 -60.7276 -11.2019
-29.0844 17.0682 0.8370 13.7034 85.9070 10.4259 0.0000 0.0000 0.0000 -15.9754 6.6976 13.4984 0.0009 -0.1964 -0.5396 0.3349 9.9647 -18.6987 0.0437 -1.3499 -3.7120 0.0000 0.0000 0.0000 14.1266 -4.5842 9.5184 -0.0389 -1.2730 3.5002 -0.6532 5.3227 -14.3933 -0.1665 -2.6290 7.2476 -3.6635 2.0622 7.2655 -0.3962 2.3964 -1.3407 1.3530 1.2963 -5.6124 4.8244 2.5337 -19.5314 -2.1448 3.1416 28.1229 -1.0862 1.7886 12.7313 -0.0000 0.0000 0.0000 -87.5480 6.0016 35.3912 13.2844 -21.7025 -2.5575 -0.0000 -0.0000 12.5713 15.1125 -21.1019 -5.5533 -7.1250 0.0000 -0.0000 -8.5846 8.3897 7.3251 -0.0000 0.0000 0.0000 87.6377 -9.1523 29.0421 -16.8796 26.6988 -4.0331 0.0000 0.0000 2.7478 -8.2645 -32.5103 4.4638 7.1250 -0.0000 -0.0000 27.7897 -60.5643 -11.0396
-29.0842 17.0675 0.8362 13.2197 85.9056 9.9726 0.0000 0.0000 0.0000 -15.9534 6.6222 13.5150 0.0010 -0.2006 -0.5513 0.3443 9.9183 -18.7569 0.0437 -1.3490 -3.7098 0.0000 0.0000 0.0000 14.1807 -4.5298 9.5056 -0.0396 -1.2849 3.5332 -0.6587 5.3060 -14.4542 -0.1790 -2.7248 7.5136 -3.6127 2.0702 7.2374 -0.4006 2.4124 -1.3528 1.3188 1.3026 -5.6075 4.8610 2.5198 -19.5391 -2.1506 3.1112 28.1372 -1.0997 1.7786 12.7383 -0.0000 -0.0000 0.0000 -87.5347 6.0224 35.4419 13.2859 -21.7047 -2.5580 -0.0000 -0.0000 12.6882 15.2029 -21.0230 -5.5680 -7.1250 0.0000 -0.0000 -8.5237 8.4587 7.2602 -0.0000 -0.0000 0.0000 87.6743 -9.1091 28.9779 -16.8494 26.6589 -4.0196 0.0000 0.0000 2.8066 -8.1326 -32.3675 4.3747 7.1250 -0.0000 -0.0000 27.7921 -60.4085 -10.9366
-29.0837 17.0680 0.8351 12.5389 85.9000 9.2595 0.0000 0.0000 0.0000 -15.8831 6.6344 13.5899 0.0012 -0.2260 -0.6209 0.3465 9.8879 -18.7483 0.0301 -1.1209 -3.0814 0.0000 0.0000 0.0000 14.2451 -4.4988 9.5754 -0.0392 -1.2784 3.5153 -0.6610 5.2963 -14.4792 -0.1699 -2.6550 7.3197 -3.5165 2.0905 7.2451 -0.4192 2.4477 -1.3233 1.2417 1.3158 -5.5775 4.9105 2.5456 -19.5755 -2.0872 3.1011 28.0453 -1.0852 1.7849 12.7083 -0.0000 0.0000 0.0000 -87.4695 5.9650 35.6226 13.2633 -21.6718 -2.5497 -0.0000 -0.0000 12.6355 15.4587 -21.0358 -5.6690 -7.1250 0.0000 -0.0000 -8.3616 8.4146 7.1264 -0.0000 0.0000 0.0000 87.7405 -9.0576 28.8683 -16.8255 26.6272 -4.0088 0.0000 0.0000 2.8828 -8.1092 -32.2528 4.3483 7.1250 -0.0000 -0.0000 27.7106 -60.3028 -10.8312
-29.0835 17.0688 0.8345 12.6235 85.8737 9.3280 0.0000 0.0000 0.0000 -15.9174 6.6179 13.6523 0.0016 -0.2620 -0.7200 0.3347 10.0291 -18.7671 0.0314 -1.1435 -3.1438 0.0000 0.0000 0.0000 14.2652 -4.4031 9.6425 -0.0385 -1.2664 3.4822 -0.6653 5.2422 -14.5267 -0.1652 -2.6188 7.2193 -3.5074 2.1099 7.2589 -0.4360 2.4731 -1.3260 1.2153 1.3280 -5.5883 4.9302 2.5296 -19.5440 -2.0804 3.0688 28.0060 -1.0917 1.7733 12.6848 0.0000 -0.0000 0.0000 -87.4010 5.9925 35.8031 13.2775 -21.6925 -2.5549 -0.0000 -0.0000 12.4916 15.6473 -21.2115 -5.7867 -7.1250 0.0000 -0.0000 -8.2498 8.2133 7.0622 0.0000 -0.0000 0.0000 87.7744 -9.0817 28.8181 -16.8162 26.6148 -4.0046 0.0000 0.0000 2.9299 -8.1587 -32.2745 4.3777 7.1250 -0.0000 -0.0000 27.6801 -60.3335 -10.8385
